<?xml version="1.0" standalone="no"?>
<!DOCTYPE svg PUBLIC "-//W3C//DTD SVG 20010904//EN"
 "http://www.w3.org/TR/2001/REC-SVG-20010904/DTD/svg10.dtd">
<svg version="1.0" xmlns="http://www.w3.org/2000/svg"
 width="1500.000000pt" height="1500.000000pt" viewBox="0 0 1500.000000 1500.000000"
 preserveAspectRatio="xMidYMid meet">
<metadata>
Created by potrace 1.10, written by Peter Selinger 2001-2011
</metadata>
<g transform="translate(0.000000,1500.000000) scale(0.100000,-0.100000)"
fill="#000000" stroke="none">
<path d="M6360 11225 c-30 -8 -73 -14 -94 -15 -22 0 -67 -7 -100 -16 -34 -8
-88 -22 -121 -30 -251 -62 -559 -190 -768 -319 -141 -88 -353 -254 -474 -371
-103 -100 -129 -134 -103 -134 5 0 51 25 101 56 382 232 834 393 1404 501 130
24 511 24 650 -1 124 -22 269 -68 357 -112 125 -63 245 -200 310 -356 26 -62
30 -80 26 -147 -4 -82 -23 -130 -93 -236 -44 -66 -167 -192 -260 -266 -80 -64
-261 -189 -273 -189 -5 0 -18 -11 -31 -23 -26 -29 -27 -28 88 -88 96 -50 193
-137 218 -196 74 -173 48 -381 -69 -561 -120 -183 -379 -389 -658 -524 -132
-63 -469 -195 -585 -228 -16 -5 -61 -18 -100 -29 -261 -77 -433 -73 -600 11
-33 17 -62 33 -65 37 -3 3 -26 23 -52 44 -26 21 -62 58 -79 82 -17 24 -38 46
-46 49 -24 10 -60 -39 -109 -149 -115 -257 -127 -274 -183 -254 -37 13 -75 64
-121 164 -43 93 -50 170 -22 252 32 92 135 285 220 411 42 62 95 141 116 175
143 226 459 561 1046 1108 74 69 160 148 191 175 31 27 87 76 124 109 135 119
272 215 306 215 51 0 109 -61 109 -115 0 -26 -51 -85 -316 -365 -197 -209
-334 -363 -334 -376 0 -30 115 -3 265 62 17 7 71 29 120 49 214 88 431 203
670 355 237 150 375 292 375 385 0 63 -85 111 -240 136 -112 18 -615 19 -755
1 -233 -30 -350 -53 -600 -119 -315 -84 -665 -240 -975 -436 -261 -165 -419
-319 -354 -344 73 -28 607 195 868 362 91 58 124 32 64 -52 -58 -82 -70 -96
-179 -204 -145 -143 -328 -263 -528 -345 -68 -28 -221 -26 -278 4 -63 33 -109
78 -164 159 -27 40 -52 73 -54 73 -16 0 -108 -232 -135 -340 -5 -19 -14 -55
-20 -80 -80 -312 -105 -590 -80 -895 12 -138 35 -293 56 -380 9 -33 22 -87 30
-120 17 -68 20 -77 74 -230 50 -143 147 -352 210 -450 10 -16 29 -49 41 -71
65 -125 300 -408 463 -558 103 -95 330 -269 364 -280 14 -5 30 4 55 29 27 27
43 35 72 35 103 0 540 75 611 105 53 23 120 29 127 12 9 -25 -47 -62 -163
-107 -40 -16 -66 -32 -68 -43 -3 -14 5 -17 55 -17 32 0 110 9 173 20 226 38
245 41 280 50 19 4 71 16 115 25 44 9 103 23 131 31 28 8 59 14 69 14 10 0 41
6 69 14 28 8 80 22 116 31 36 9 79 20 95 25 17 5 77 20 135 35 377 95 820 290
953 420 111 108 127 194 43 237 -40 21 -49 22 -301 18 -419 -8 -749 -2 -845
16 -323 57 -509 154 -585 305 -29 56 -49 161 -41 212 8 46 61 153 110 222 62
86 233 254 382 374 119 96 368 242 524 308 156 66 276 104 530 169 334 85 781
125 1000 90 136 -22 224 -42 335 -79 94 -31 219 -89 230 -107 3 -5 15 -10 26
-10 16 0 19 7 19 41 0 65 -42 338 -65 429 -8 30 -23 91 -34 135 -28 113 -102
315 -150 413 -23 45 -41 85 -41 87 0 2 -40 72 -89 154 -224 377 -524 692 -866
913 -97 62 -223 138 -231 138 -3 0 -47 21 -97 46 -112 55 -335 134 -477 169
-58 14 -119 30 -137 36 -17 5 -69 14 -115 19 -46 6 -99 14 -118 20 -55 16
-613 11 -680 -5z"/>
<path d="M6600 9328 c-97 -11 -192 -31 -365 -75 -194 -50 -296 -72 -324 -73
-16 0 -39 15 -67 45 -49 53 -79 58 -116 18 -14 -16 -87 -111 -163 -213 -75
-102 -154 -207 -176 -235 -163 -212 -409 -551 -409 -565 0 -26 44 -40 130 -40
309 0 797 154 1205 380 345 191 583 387 679 559 27 49 28 145 1 165 -57 43
-209 56 -395 34z"/>
<path d="M8875 8410 c-228 -11 -476 -40 -620 -71 -143 -31 -194 -43 -240 -56
-115 -32 -162 -46 -195 -59 -19 -7 -69 -25 -110 -40 -217 -78 -390 -161 -599
-287 -336 -202 -453 -346 -338 -415 84 -50 321 -80 702 -87 321 -6 449 -17
590 -51 183 -44 318 -132 368 -241 31 -68 31 -244 0 -319 -89 -212 -312 -403
-692 -590 -97 -48 -185 -91 -195 -97 -11 -5 -31 -13 -45 -17 -14 -5 -51 -18
-81 -30 -184 -71 -438 -144 -610 -177 -14 -2 -52 -10 -85 -18 -62 -14 -208
-39 -308 -52 -66 -9 -74 -22 -25 -40 50 -18 560 -17 663 1 44 8 109 20 145 26
145 26 185 37 390 102 302 97 674 306 920 517 206 178 437 453 559 666 28 50
56 97 61 105 43 68 153 327 204 480 25 77 76 281 76 306 0 30 -5 30 -56 0
-193 -110 -532 -157 -907 -126 -155 13 -209 40 -159 82 31 26 103 52 302 108
189 53 427 128 498 157 121 48 207 130 188 178 -16 44 -148 58 -401 45z"/>
<path d="M4905 5356 c-12 -9 -15 -15 -7 -20 8 -5 12 -53 12 -151 0 -135 -1
-145 -20 -155 -39 -21 -9 -30 97 -30 88 0 111 3 138 20 60 37 69 110 18 150
l-25 19 21 44 c18 36 20 50 11 72 -14 36 -38 54 -72 55 -32 0 -37 -15 -9 -29
25 -14 35 -56 20 -84 -17 -31 -28 -37 -76 -37 -40 0 -42 1 -49 36 -4 20 -2 52
4 72 6 20 10 37 9 38 -15 10 -57 11 -72 0z m193 -199 c30 -28 29 -77 -2 -106
-19 -18 -33 -22 -77 -19 l-54 3 -3 65 c-2 52 0 67 14 77 24 17 93 6 122 -20z"/>
<path d="M5285 5364 c-6 -2 -9 -62 -6 -161 3 -154 3 -156 -20 -174 -35 -26
-14 -30 137 -27 l129 3 3 33 3 34 -28 -22 c-25 -18 -41 -21 -99 -18 l-69 3 -3
138 c-1 81 2 145 8 157 8 15 6 21 -9 30 -20 10 -29 11 -46 4z"/>
<path d="M6945 5361 c-68 -6 -70 -7 -73 -35 l-4 -29 28 22 c17 13 41 21 65 21
35 0 39 -3 44 -32 3 -18 5 -87 3 -153 -3 -116 -4 -120 -25 -123 -13 -2 -23
-10 -23 -18 0 -11 15 -14 63 -14 73 0 87 7 56 31 -21 16 -22 23 -20 155 2 115
5 141 18 151 9 7 15 14 12 17 -10 9 -79 12 -144 7z"/>
<path d="M7267 5359 c-12 -7 -15 -15 -9 -22 5 -7 12 -72 14 -145 5 -129 5
-133 33 -162 27 -28 33 -30 105 -30 72 0 78 2 106 31 29 30 29 32 35 177 3 81
3 151 -1 155 -4 4 -13 5 -21 2 -11 -4 -13 -31 -11 -143 4 -132 3 -138 -20
-164 -20 -24 -31 -28 -75 -28 -55 0 -77 14 -94 57 -13 36 -12 240 3 249 7 5 5
11 -7 21 -22 16 -34 16 -58 2z"/>
<path d="M7697 5363 c-13 -4 -16 -9 -10 -21 4 -10 9 -81 11 -159 3 -135 2
-142 -18 -153 -37 -20 -10 -30 79 -30 130 0 191 30 226 113 33 78 8 170 -58
218 -40 29 -81 38 -92 19 -3 -5 6 -12 20 -16 37 -9 77 -66 82 -118 8 -71 -4
-112 -44 -151 -34 -33 -41 -36 -88 -33 l-50 3 -3 138 c-2 87 2 145 9 158 6 11
9 22 7 23 -8 7 -55 13 -71 9z"/>
<path d="M8101 5359 c-19 -7 -22 -12 -13 -21 8 -8 12 -59 12 -155 0 -133 -1
-143 -20 -153 -33 -18 -13 -30 50 -30 64 0 86 14 46 30 l-26 10 0 129 c0 71 5
142 10 157 16 40 -8 53 -59 33z"/>
<path d="M5630 5322 c-67 -66 -76 -168 -23 -249 36 -57 69 -73 145 -73 51 0
70 5 101 25 71 49 98 164 57 244 -23 47 -74 91 -103 91 l-22 -1 22 -18 c12
-10 31 -33 42 -52 44 -72 17 -236 -43 -255 -36 -12 -108 -5 -127 12 -52 47
-65 160 -27 239 12 25 30 47 40 51 25 8 23 24 -3 24 -12 0 -38 -17 -59 -38z"/>
<path d="M6067 5344 c-49 -26 -77 -85 -77 -159 0 -78 15 -111 69 -154 36 -29
45 -31 117 -31 62 0 86 5 112 20 32 20 33 22 30 78 -3 56 -3 57 -35 60 -24 2
-33 -1 -33 -12 0 -8 5 -18 10 -21 16 -10 12 -62 -6 -79 -22 -22 -136 -25 -162
-3 -50 40 -63 185 -23 250 12 19 28 38 36 41 18 7 20 26 3 26 -7 -1 -25 -8
-41 -16z"/>
<path d="M6245 5314 c46 -47 65 -50 65 -9 0 35 -26 55 -70 55 l-39 0 44 -46z"/>
<path d="M6585 5333 c-56 -61 -19 -134 85 -168 77 -24 100 -41 100 -71 0 -51
-16 -64 -77 -64 -48 0 -61 4 -84 26 -43 41 -71 6 -29 -36 17 -17 33 -20 103
-20 78 0 85 2 109 28 72 75 29 153 -103 185 -14 4 -38 16 -53 28 -23 18 -27
27 -22 53 4 17 13 34 21 39 21 11 19 27 -5 27 -10 0 -31 -12 -45 -27z"/>
<path d="M6730 5350 c0 -6 7 -13 16 -17 8 -3 20 -16 25 -29 10 -29 25 -31 34
-4 10 31 -12 60 -45 60 -17 0 -30 -5 -30 -10z"/>
<path d="M7100 5350 c0 -5 9 -10 20 -10 10 0 28 -10 39 -22 18 -19 21 -19 27
-5 12 32 -3 47 -46 47 -22 0 -40 -4 -40 -10z"/>
<path d="M8320 5334 c-57 -48 -80 -129 -60 -205 24 -88 79 -129 173 -129 71 0
114 24 151 81 28 45 27 161 -2 208 -22 37 -67 71 -94 71 -23 0 -23 -17 0 -24
66 -21 82 -209 24 -284 -15 -20 -27 -23 -76 -23 -42 0 -63 5 -78 18 -67 61
-63 226 7 281 14 11 25 23 25 26 0 15 -42 3 -70 -20z"/>
</g>
</svg>
