<?xml version="1.0" standalone="no"?>
<!DOCTYPE svg PUBLIC "-//W3C//DTD SVG 20010904//EN"
 "http://www.w3.org/TR/2001/REC-SVG-20010904/DTD/svg10.dtd">
<svg version="1.0" xmlns="http://www.w3.org/2000/svg"
 width="300.000000pt" height="300.000000pt" viewBox="0 0 300.000000 300.000000"
 preserveAspectRatio="xMidYMid meet">
<metadata>
Created by potrace 1.10, written by Peter Selinger 2001-2011
</metadata>
<g transform="translate(0.000000,300.000000) scale(0.100000,-0.100000)"
fill="#000000" stroke="none">
<path d="M1355 2850 c-263 -37 -548 -181 -724 -364 -42 -44 -36 -45 28 -6 120
74 354 166 524 205 171 40 374 38 501 -5 110 -36 216 -156 216 -244 0 -77
-107 -207 -243 -295 -37 -24 -67 -45 -67 -47 0 -2 21 -15 48 -28 165 -84 162
-269 -7 -429 -85 -80 -176 -135 -318 -192 -296 -120 -444 -125 -550 -18 -24
23 -47 43 -52 43 -4 0 -27 -40 -50 -89 -23 -50 -45 -92 -50 -95 -29 -18 -93
85 -93 151 0 71 139 298 280 456 141 159 538 529 604 563 33 17 63 6 73 -27 6
-19 -44 -79 -258 -305 -21 -23 -35 -44 -30 -47 25 -16 313 110 443 194 145 92
200 147 200 197 0 68 -275 92 -537 47 -272 -47 -568 -175 -740 -322 -133 -112
-7 -92 250 39 76 39 140 68 144 65 8 -8 -40 -71 -98 -128 -84 -82 -235 -168
-296 -169 -57 0 -109 37 -154 110 -13 22 -23 4 -59 -107 -42 -131 -60 -246
-60 -388 0 -339 126 -642 365 -880 108 -107 202 -176 214 -156 5 8 58 21 132
32 68 11 147 26 176 34 61 18 63 18 63 4 0 -5 -26 -22 -57 -37 l-58 -27 43 -3
c92 -7 548 99 727 168 175 68 275 140 275 198 0 23 -6 33 -22 38 -13 4 -138 8
-278 9 -251 0 -256 1 -338 28 -124 42 -182 103 -182 192 0 49 29 102 96 174
193 208 490 337 859 371 61 5 133 7 160 4 84 -10 208 -44 254 -70 24 -13 45
-24 47 -24 11 0 2 103 -16 191 -62 302 -228 565 -474 750 -114 87 -295 172
-441 210 -100 26 -144 31 -265 34 -80 2 -172 0 -205 -5z"/>
<path d="M1375 1981 c-44 -10 -113 -26 -154 -37 l-73 -18 -18 22 c-10 12 -25
22 -33 22 -8 0 -94 -105 -190 -234 -201 -268 -200 -264 -72 -252 236 21 567
172 738 334 91 87 112 147 62 170 -37 17 -167 13 -260 -7z"/>
<path d="M2365 1563 c-78 -7 -251 -46 -340 -75 -240 -80 -495 -238 -495 -309
0 -43 140 -68 375 -69 204 0 328 -34 377 -102 31 -45 36 -123 10 -181 -83
-187 -459 -367 -907 -433 l-50 -8 50 -7 c75 -11 190 -10 285 1 489 60 909 415
1044 884 31 106 32 121 9 110 -99 -43 -164 -57 -283 -61 -136 -5 -205 4 -205
27 0 16 18 23 246 94 149 47 204 78 197 114 -3 15 -19 17 -138 18 -74 0 -153
-1 -175 -3z"/>
</g>
</svg>
